<svg width="210" height="172" viewBox="0 0 210 172" fill="none" xmlns="http://www.w3.org/2000/svg">
<path d="M74.4812 98.9276C66.6501 93.2983 57.3071 88.0973 47.9754 83.111C46.0456 82.0799 44.1166 81.0581 42.2013 80.0436C34.8265 76.1371 27.6549 72.3382 21.422 68.5275C13.5588 63.7201 7.27028 58.9397 3.96609 53.9723C2.32104 51.4992 1.431 49.0019 1.43617 46.445C1.44135 43.8903 2.34028 41.2233 4.36547 38.4087C6.3681 35.6255 10.3418 32.7004 15.9063 29.762C21.4551 26.8318 28.5278 23.9178 36.6631 21.1328C52.9325 15.5634 73.4094 10.5244 94.3509 6.90585C115.293 3.28716 136.682 1.09205 154.775 1.20296C163.822 1.25842 172.034 1.89039 178.948 3.20468C185.871 4.52047 191.452 6.51279 195.272 9.26125C202.901 14.7503 207.008 25.7895 208.543 39.8009C210.076 53.7838 209.031 70.5925 206.49 87.444C203.95 104.291 199.917 121.158 195.485 135.248C191.047 149.355 186.227 160.625 182.131 166.317C180.142 169.081 177.652 170.384 174.722 170.557C171.76 170.732 168.306 169.753 164.427 167.843C156.668 164.022 147.42 156.582 137.398 147.828C133.742 144.635 129.984 141.267 126.163 137.843C119.533 131.901 112.712 125.789 105.909 120.124C95.1986 111.206 84.4708 103.344 74.4812 98.9276Z" stroke="#636C65"/>
</svg>
