<svg width="218" height="155" viewBox="0 0 218 155" fill="none" xmlns="http://www.w3.org/2000/svg">
<path d="M25.3292 140.557C22.1754 128.787 17.6083 117.419 13.282 106.814C13.0788 106.316 12.8761 105.819 12.6742 105.325C8.57064 95.2732 4.76282 85.946 2.64596 77.5965C0.42381 68.8317 0.0938698 61.2476 3.15542 55.0902C6.20851 48.9499 12.7001 44.1024 24.4224 40.9614C42.3934 36.1461 50.4453 27.9873 57.971 20.3617C60.3837 17.9169 62.7424 15.527 65.3565 13.3195C70.7383 8.77497 77.2545 4.93349 87.6487 2.85019C98.0585 0.763789 112.373 0.437899 133.351 2.96369C155.889 6.72103 173.103 10.6969 185.882 14.7992C198.674 18.9059 206.977 23.1253 211.734 27.3431C214.108 29.4478 215.579 31.5345 216.299 33.5864C217.016 35.6308 216.998 37.6721 216.343 39.7171C215.022 43.8388 211.102 47.9955 205.31 52.0806C193.748 60.2356 175.069 67.8719 156.289 74.2662C137.524 80.6557 118.713 85.7873 106.92 88.9472C95.0026 92.1406 84.6787 99.9287 75.7153 109.022C67.8726 116.979 61.039 125.97 55.0778 133.814C54.2263 134.934 53.3926 136.031 52.5763 137.099C49.3053 141.375 46.319 145.166 43.5794 148.089C40.8279 151.025 38.3804 153.022 36.1972 153.788C35.1191 154.166 34.1234 154.237 33.1892 153.988C32.2535 153.739 31.3327 153.156 30.4269 152.146C28.5995 150.11 26.8972 146.409 25.3292 140.557Z" stroke="#636C65"/>
</svg>
