<svg width="213" height="119" viewBox="0 0 213 119" fill="none" xmlns="http://www.w3.org/2000/svg">
    <path d="M205.995 21.9429C210.628 37.1128 212.371 47.9976 211.545 56.0666C210.724 64.0936 207.361 69.3413 201.704 73.2756C196.007 77.2375 187.973 79.8763 177.782 82.6032C174.686 83.4315 171.394 84.2676 167.914 85.1512C159.968 87.1688 151.044 89.4346 141.257 92.4233C132.41 95.1249 123.365 98.2625 114.348 101.39C109.026 103.236 103.714 105.079 98.4589 106.826C84.2782 111.542 70.4835 115.574 57.8795 117.179C45.2739 118.783 33.9159 117.951 24.5724 112.996C15.2447 108.049 7.84716 98.9518 3.23847 83.86C0.929468 76.2988 0.371859 70.6726 1.2105 66.5609C2.04174 62.4856 4.24824 59.8732 7.57672 58.304C10.9389 56.719 15.4728 56.1872 20.946 56.3801C26.4106 56.5727 32.7554 57.4847 39.7066 58.7411C44.4419 59.597 49.4606 60.6135 54.6657 61.6677C64.7106 63.7023 75.45 65.8774 86.1871 67.3104C102.499 69.4875 118.912 69.9705 133.079 65.6441C160.631 57.2304 174.473 32.2205 183.506 15.9002C183.768 15.427 184.026 14.9611 184.28 14.5031C186.543 10.4236 188.49 6.99258 190.286 4.59549C191.183 3.39775 192.025 2.48326 192.828 1.87874C193.63 1.27589 194.36 1.00574 195.049 1.03105C195.736 1.05623 196.47 1.37712 197.277 2.13505C198.087 2.89693 198.943 4.07629 199.856 5.75467C201.681 9.11099 203.678 14.3564 205.995 21.9429Z"
          stroke="#636C65"/>
</svg>
