<svg width="82" height="92" viewBox="0 0 82 92" fill="none" xmlns="http://www.w3.org/2000/svg">
<rect x="28.9863" y="15.1233" width="34.0274" height="6.30137" fill="#636C65"/>
<rect x="28.9863" y="70.5753" width="34.0274" height="6.30137" fill="#636C65"/>
<rect x="36.548" y="42.8492" width="17.6438" height="6.30137" fill="#636C65"/>
<rect x="27.726" y="15.1233" width="61.7534" height="6.30137" transform="rotate(90 27.726 15.1233)" fill="#636C65"/>
<rect x="23.9452" y="22.6849" width="1.26027" height="51.6712" fill="#C4C4C4"/>
<rect x="46.6301" y="73.0959" width="1.26027" height="21.4247" transform="rotate(90 46.6301 73.0959)" fill="#C4C4C4"/>
<path fill-rule="evenodd" clip-rule="evenodd" d="M80.9178 1H1V31.5069H0V1V0H1H80.9178H81.9178V1V31.5069H80.9178V1ZM0 60.4932V91V92H1H80.9178H81.9178V91V60.4932H80.9178V91H1V60.4932H0Z" fill="#636C65"/>
</svg>
